G04 Layer: TopPasteMaskLayer*
G04 EasyEDA v6.4.5, 2020-09-20T16:18:12--7:00*
G04 bc100e7cdeee4e5aa78747fa08b5d3d3,abbdd1fb948b472fab9dcc4573dbb586,10*
G04 Gerber Generator version 0.2*
G04 Scale: 100 percent, Rotated: No, Reflected: No *
G04 Dimensions in millimeters *
G04 leading zeros omitted , absolute positions ,3 integer and 3 decimal *
%FSLAX33Y33*%
%MOMM*%
G90*
G71D02*

%ADD11C,0.599999*%
%ADD13R,1.099998X0.999998*%

%LPD*%
G54D11*
G01X2896Y4953D02*
G01X3816Y4953D01*
G01X8375Y2413D02*
G01X9295Y2413D01*
G01X8375Y1143D02*
G01X9295Y1143D01*
G01X8375Y3683D02*
G01X9295Y3683D01*
G01X8375Y4953D02*
G01X9295Y4953D01*
G01X2896Y1143D02*
G01X3816Y1143D01*
G01X2896Y3683D02*
G01X3816Y3683D01*
G01X2921Y13105D02*
G01X2921Y12185D01*
G01X1651Y7626D02*
G01X1651Y6706D01*
G01X2921Y7626D02*
G01X2921Y6706D01*
G01X4191Y7626D02*
G01X4191Y6706D01*
G01X4191Y13105D02*
G01X4191Y12185D01*
G01X5461Y13105D02*
G01X5461Y12185D01*
G54D13*
G01X7620Y10960D03*
G01X7620Y9360D03*
G36*
G01X10409Y11702D02*
G01X10909Y11702D01*
G01X10909Y10902D01*
G01X10409Y10902D01*
G01X10409Y11702D01*
G37*
G36*
G01X9409Y11702D02*
G01X9909Y11702D01*
G01X9909Y10902D01*
G01X9409Y10902D01*
G01X9409Y11702D01*
G37*
G36*
G01X10409Y9416D02*
G01X10909Y9416D01*
G01X10909Y8616D01*
G01X10409Y8616D01*
G01X10409Y9416D01*
G37*
G36*
G01X9409Y9416D02*
G01X9909Y9416D01*
G01X9909Y8616D01*
G01X9409Y8616D01*
G01X9409Y9416D01*
G37*
M00*
M02*
