%FSLAX23Y23*%
%MOIN*%
G70*
G01*
G75*
G04 Layer_Color=8388736*
%ADD10C,0.010*%
%ADD11R,0.051X0.050*%
%ADD12O,0.039X0.014*%
%ADD13R,0.058X0.011*%
%ADD14R,0.011X0.058*%
%ADD15R,0.118X0.039*%
%ADD16R,0.050X0.051*%
%ADD17R,0.039X0.028*%
%ADD18O,0.012X0.071*%
%ADD19O,0.071X0.012*%
%ADD20O,0.016X0.071*%
%ADD21R,0.016X0.071*%
%ADD22C,0.020*%
%ADD23C,0.016*%
%ADD24C,0.012*%
%ADD25C,0.059*%
%ADD26R,0.059X0.059*%
%ADD27C,0.063*%
%ADD28C,0.071*%
%ADD29R,0.059X0.059*%
%ADD30O,0.138X0.079*%
%ADD31C,0.043*%
%ADD32C,0.118*%
%ADD33C,0.028*%
%ADD34C,0.039*%
%ADD35C,0.008*%
%ADD36C,0.006*%
%ADD37C,0.024*%
%ADD38C,0.010*%
%ADD39C,0.005*%
%ADD40C,0.008*%
%ADD41C,0.004*%
%ADD42C,0.006*%
%ADD43R,0.059X0.058*%
%ADD44O,0.047X0.022*%
%ADD45R,0.066X0.019*%
%ADD46R,0.019X0.066*%
%ADD47R,0.126X0.047*%
%ADD48R,0.058X0.059*%
%ADD49R,0.047X0.036*%
%ADD50O,0.020X0.079*%
%ADD51O,0.079X0.020*%
%ADD52O,0.024X0.079*%
%ADD53R,0.024X0.079*%
%ADD54C,0.067*%
%ADD55R,0.067X0.067*%
%ADD56C,0.071*%
%ADD57C,0.079*%
%ADD58R,0.067X0.067*%
%ADD59O,0.146X0.087*%
%ADD60C,0.051*%
%ADD61C,0.126*%
%ADD62C,0.036*%
%ADD63C,0.047*%
D43*
X189Y-1174D02*
D03*
X188Y-1381D02*
D03*
Y-1483D02*
D03*
X190Y-1581D02*
D03*
X191Y-1679D02*
D03*
X187Y-1277D02*
D03*
X435Y-808D02*
D03*
X345D02*
D03*
X700Y-713D02*
D03*
X610D02*
D03*
X697Y-811D02*
D03*
X607D02*
D03*
X1221Y-1235D02*
D03*
X1131D02*
D03*
X1030Y-948D02*
D03*
X940D02*
D03*
X1311Y-180D02*
D03*
X1221D02*
D03*
X1417Y-1240D02*
D03*
X1507D02*
D03*
X191Y-1880D02*
D03*
X281D02*
D03*
X191Y-1780D02*
D03*
X281D02*
D03*
Y-1679D02*
D03*
X1472Y-1425D02*
D03*
X1382D02*
D03*
X280Y-1581D02*
D03*
X278Y-1483D02*
D03*
Y-1381D02*
D03*
X277Y-1277D02*
D03*
X279Y-1174D02*
D03*
X1689Y-1873D02*
D03*
X1779D02*
D03*
X1689Y-1784D02*
D03*
X1779D02*
D03*
X1689Y-1696D02*
D03*
X1779D02*
D03*
X1689Y-1607D02*
D03*
X1779D02*
D03*
X1689Y-1961D02*
D03*
X1779D02*
D03*
X190Y-1078D02*
D03*
X280D02*
D03*
X1386Y-1338D02*
D03*
X1476D02*
D03*
X1779Y-1519D02*
D03*
X1689D02*
D03*
X466Y-1882D02*
D03*
X376D02*
D03*
X466Y-1780D02*
D03*
X376D02*
D03*
X466Y-1679D02*
D03*
X376D02*
D03*
X468Y-1583D02*
D03*
X378D02*
D03*
X468Y-1479D02*
D03*
X378D02*
D03*
X466Y-1380D02*
D03*
X376D02*
D03*
X466Y-1277D02*
D03*
X376D02*
D03*
X464Y-1173D02*
D03*
X374D02*
D03*
D44*
X324Y-1990D02*
D03*
X351Y-2136D02*
D03*
Y-2161D02*
D03*
Y-2187D02*
D03*
X430D02*
D03*
Y-2161D02*
D03*
Y-2136D02*
D03*
X233Y-994D02*
D03*
X324Y-1964D02*
D03*
X233Y-968D02*
D03*
Y-942D02*
D03*
X312D02*
D03*
Y-968D02*
D03*
Y-994D02*
D03*
X245Y-1964D02*
D03*
Y-1990D02*
D03*
Y-2016D02*
D03*
X324D02*
D03*
D45*
X1550Y-563D02*
D03*
Y-583D02*
D03*
Y-603D02*
D03*
Y-622D02*
D03*
Y-642D02*
D03*
Y-662D02*
D03*
Y-681D02*
D03*
Y-701D02*
D03*
Y-721D02*
D03*
Y-741D02*
D03*
Y-760D02*
D03*
Y-780D02*
D03*
Y-800D02*
D03*
Y-819D02*
D03*
Y-839D02*
D03*
Y-859D02*
D03*
X1104D02*
D03*
Y-839D02*
D03*
Y-819D02*
D03*
Y-800D02*
D03*
Y-780D02*
D03*
Y-760D02*
D03*
X1103Y-741D02*
D03*
X1104Y-721D02*
D03*
Y-701D02*
D03*
Y-681D02*
D03*
Y-662D02*
D03*
Y-642D02*
D03*
Y-622D02*
D03*
Y-603D02*
D03*
Y-583D02*
D03*
Y-563D02*
D03*
D46*
X1475Y-934D02*
D03*
X1455D02*
D03*
X1435D02*
D03*
X1416D02*
D03*
X1396D02*
D03*
X1376D02*
D03*
X1357D02*
D03*
X1337D02*
D03*
X1317D02*
D03*
X1297D02*
D03*
X1278D02*
D03*
X1258D02*
D03*
X1238D02*
D03*
X1219D02*
D03*
X1199D02*
D03*
X1179D02*
D03*
Y-488D02*
D03*
X1199D02*
D03*
X1219D02*
D03*
X1238D02*
D03*
X1258D02*
D03*
X1278D02*
D03*
X1297D02*
D03*
X1317D02*
D03*
X1337D02*
D03*
X1357D02*
D03*
X1376D02*
D03*
X1396D02*
D03*
X1416D02*
D03*
X1435D02*
D03*
X1455D02*
D03*
X1475D02*
D03*
D47*
X1523Y-1097D02*
D03*
X1117D02*
D03*
D48*
X1041Y-53D02*
D03*
Y-143D02*
D03*
X1421Y-275D02*
D03*
Y-365D02*
D03*
X778Y-60D02*
D03*
Y-150D02*
D03*
X443Y-64D02*
D03*
Y-154D02*
D03*
X685Y-149D02*
D03*
Y-59D02*
D03*
X442Y-472D02*
D03*
Y-562D02*
D03*
X348Y-474D02*
D03*
Y-564D02*
D03*
X1317Y-281D02*
D03*
Y-371D02*
D03*
X1221Y-368D02*
D03*
Y-278D02*
D03*
X986Y-606D02*
D03*
Y-516D02*
D03*
X1677Y-872D02*
D03*
Y-782D02*
D03*
X973Y-831D02*
D03*
Y-741D02*
D03*
X1771Y-783D02*
D03*
Y-873D02*
D03*
X1179Y-2151D02*
D03*
Y-2241D02*
D03*
X1084Y-2151D02*
D03*
Y-2241D02*
D03*
X988Y-2236D02*
D03*
Y-2146D02*
D03*
X1117Y-1338D02*
D03*
Y-1428D02*
D03*
X1351Y-2236D02*
D03*
Y-2146D02*
D03*
X1433Y-2236D02*
D03*
Y-2146D02*
D03*
X1299Y-1342D02*
D03*
Y-1432D02*
D03*
X1219Y-1342D02*
D03*
Y-1432D02*
D03*
X1270Y-2236D02*
D03*
Y-2146D02*
D03*
D49*
X599Y-115D02*
D03*
X527Y-154D02*
D03*
Y-76D02*
D03*
X599D02*
D03*
Y-154D02*
D03*
X948Y-158D02*
D03*
Y-80D02*
D03*
X875D02*
D03*
Y-158D02*
D03*
X948Y-119D02*
D03*
D50*
X1106Y-1596D02*
D03*
X1126D02*
D03*
X1146D02*
D03*
X1165D02*
D03*
X1185D02*
D03*
X1205D02*
D03*
X1224D02*
D03*
X1244D02*
D03*
X1264D02*
D03*
X1284D02*
D03*
X1303D02*
D03*
X1323D02*
D03*
X1343D02*
D03*
X1362D02*
D03*
X1382D02*
D03*
X1402D02*
D03*
Y-2034D02*
D03*
X1382D02*
D03*
X1362D02*
D03*
X1343D02*
D03*
X1323D02*
D03*
X1303D02*
D03*
X1284D02*
D03*
X1264D02*
D03*
X1244D02*
D03*
X1224D02*
D03*
X1205D02*
D03*
X1185D02*
D03*
X1165D02*
D03*
X1146D02*
D03*
X1126D02*
D03*
X1106D02*
D03*
D51*
X1473Y-1667D02*
D03*
Y-1687D02*
D03*
Y-1707D02*
D03*
Y-1726D02*
D03*
Y-1746D02*
D03*
Y-1766D02*
D03*
Y-1785D02*
D03*
Y-1805D02*
D03*
Y-1825D02*
D03*
Y-1845D02*
D03*
Y-1864D02*
D03*
Y-1884D02*
D03*
Y-1904D02*
D03*
Y-1923D02*
D03*
Y-1943D02*
D03*
Y-1963D02*
D03*
X1035D02*
D03*
Y-1943D02*
D03*
Y-1923D02*
D03*
Y-1904D02*
D03*
Y-1884D02*
D03*
Y-1864D02*
D03*
Y-1845D02*
D03*
Y-1825D02*
D03*
Y-1805D02*
D03*
Y-1785D02*
D03*
Y-1766D02*
D03*
Y-1746D02*
D03*
Y-1726D02*
D03*
Y-1707D02*
D03*
Y-1687D02*
D03*
Y-1667D02*
D03*
D52*
X552Y-602D02*
D03*
X578D02*
D03*
X603D02*
D03*
X629D02*
D03*
X654D02*
D03*
X680D02*
D03*
X706D02*
D03*
X757D02*
D03*
X782D02*
D03*
X808D02*
D03*
X834D02*
D03*
X859D02*
D03*
X552Y-350D02*
D03*
X578D02*
D03*
X603D02*
D03*
X629D02*
D03*
X654D02*
D03*
X680D02*
D03*
X706D02*
D03*
X731D02*
D03*
X757D02*
D03*
X782D02*
D03*
X808D02*
D03*
X834D02*
D03*
X859D02*
D03*
X885Y-602D02*
D03*
X731D02*
D03*
D53*
X885Y-350D02*
D03*
D54*
X65Y-1178D02*
D03*
Y-1378D02*
D03*
Y-1478D02*
D03*
Y-1578D02*
D03*
Y-1678D02*
D03*
Y-1278D02*
D03*
X1150Y-51D02*
D03*
X65Y-978D02*
D03*
Y-1078D02*
D03*
Y-1778D02*
D03*
X183Y-500D02*
D03*
Y-775D02*
D03*
Y-677D02*
D03*
Y-598D02*
D03*
X1767Y-479D02*
D03*
Y-379D02*
D03*
Y-279D02*
D03*
Y-179D02*
D03*
Y-79D02*
D03*
D55*
X1250Y-51D02*
D03*
D56*
X294Y-223D02*
D03*
Y-323D02*
D03*
X838Y-946D02*
D03*
X484D02*
D03*
X978Y-1406D02*
D03*
Y-1052D02*
D03*
X736Y-1415D02*
D03*
Y-1061D02*
D03*
X635Y-1051D02*
D03*
Y-1405D02*
D03*
D57*
X856Y-1128D02*
D03*
Y-1328D02*
D03*
D58*
X65Y-1878D02*
D03*
X1767Y-579D02*
D03*
D59*
X104Y-862D02*
D03*
Y-413D02*
D03*
D60*
X92Y-549D02*
D03*
Y-726D02*
D03*
D61*
X118Y-118D02*
D03*
X1530Y-100D02*
D03*
X1757Y-2199D02*
D03*
X100Y-2198D02*
D03*
D62*
X733Y-158D02*
D03*
X641Y-157D02*
D03*
X1198Y-436D02*
D03*
X1131Y-474D02*
D03*
X638Y-412D02*
D03*
X1041Y-831D02*
D03*
X853Y-432D02*
D03*
X942Y-672D02*
D03*
X1021Y-668D02*
D03*
X1048Y-787D02*
D03*
X1050Y-515D02*
D03*
X1212Y-235D02*
D03*
X320Y-894D02*
D03*
X1608Y-582D02*
D03*
X1343Y-1818D02*
D03*
X1616Y-787D02*
D03*
X1398Y-1943D02*
D03*
X1624Y-829D02*
D03*
X1410Y-1763D02*
D03*
X1634Y-923D02*
D03*
X1553Y-1832D02*
D03*
X1588Y-1637D02*
D03*
X1661Y-967D02*
D03*
X240Y-909D02*
D03*
X190Y-970D02*
D03*
X256Y-2045D02*
D03*
X182Y-2010D02*
D03*
X1008Y-2035D02*
D03*
X1163Y-1667D02*
D03*
X1109Y-1667D02*
D03*
X310Y-2170D02*
D03*
X259Y-2137D02*
D03*
X144Y-1965D02*
D03*
D63*
X522Y-1174D02*
D03*
X524Y-1278D02*
D03*
X513Y-1384D02*
D03*
X522Y-1500D02*
D03*
X524Y-1585D02*
D03*
X522Y-1681D02*
D03*
Y-1782D02*
D03*
Y-1884D02*
D03*
M02*
