%FSLAX23Y23*%
%MOIN*%
G70*
G01*
G75*
G04 Layer_Color=16711935*
%ADD10C,0.010*%
%ADD11R,0.051X0.050*%
%ADD12O,0.039X0.014*%
%ADD13R,0.058X0.011*%
%ADD14R,0.011X0.058*%
%ADD15R,0.118X0.039*%
%ADD16R,0.050X0.051*%
%ADD17R,0.039X0.028*%
%ADD18O,0.012X0.071*%
%ADD19O,0.071X0.012*%
%ADD20O,0.016X0.071*%
%ADD21R,0.016X0.071*%
%ADD22C,0.020*%
%ADD23C,0.016*%
%ADD24C,0.012*%
%ADD25C,0.059*%
%ADD26R,0.059X0.059*%
%ADD27C,0.063*%
%ADD28C,0.071*%
%ADD29R,0.059X0.059*%
%ADD30O,0.138X0.079*%
%ADD31C,0.043*%
%ADD32C,0.118*%
%ADD33C,0.028*%
%ADD34C,0.039*%
%ADD35C,0.008*%
%ADD36C,0.006*%
%ADD37C,0.024*%
%ADD38C,0.010*%
%ADD39C,0.005*%
%ADD40C,0.008*%
%ADD41C,0.004*%
%ADD42C,0.006*%
%ADD43R,0.059X0.058*%
%ADD44O,0.047X0.022*%
%ADD45R,0.066X0.019*%
%ADD46R,0.019X0.066*%
%ADD47R,0.126X0.047*%
%ADD48R,0.058X0.059*%
%ADD49R,0.047X0.036*%
%ADD50O,0.020X0.079*%
%ADD51O,0.079X0.020*%
%ADD52O,0.024X0.079*%
%ADD53R,0.024X0.079*%
%ADD54C,0.067*%
%ADD55R,0.067X0.067*%
%ADD56C,0.071*%
%ADD57C,0.079*%
%ADD58R,0.067X0.067*%
%ADD59O,0.146X0.087*%
%ADD60C,0.051*%
%ADD61C,0.126*%
%ADD62C,0.036*%
%ADD63C,0.047*%
D54*
X65Y-1178D02*
D03*
Y-1378D02*
D03*
Y-1478D02*
D03*
Y-1578D02*
D03*
Y-1678D02*
D03*
Y-1278D02*
D03*
X1150Y-51D02*
D03*
X65Y-978D02*
D03*
Y-1078D02*
D03*
Y-1778D02*
D03*
X183Y-500D02*
D03*
Y-775D02*
D03*
Y-677D02*
D03*
Y-598D02*
D03*
X1767Y-479D02*
D03*
Y-379D02*
D03*
Y-279D02*
D03*
Y-179D02*
D03*
Y-79D02*
D03*
D55*
X1250Y-51D02*
D03*
D56*
X294Y-223D02*
D03*
Y-323D02*
D03*
X838Y-946D02*
D03*
X484D02*
D03*
X978Y-1406D02*
D03*
Y-1052D02*
D03*
X736Y-1415D02*
D03*
Y-1061D02*
D03*
X635Y-1051D02*
D03*
Y-1405D02*
D03*
D57*
X856Y-1128D02*
D03*
Y-1328D02*
D03*
D58*
X65Y-1878D02*
D03*
X1767Y-579D02*
D03*
D59*
X104Y-862D02*
D03*
Y-413D02*
D03*
D60*
X92Y-549D02*
D03*
Y-726D02*
D03*
D61*
X118Y-118D02*
D03*
X1530Y-100D02*
D03*
X1757Y-2199D02*
D03*
X100Y-2198D02*
D03*
D62*
X733Y-158D02*
D03*
X641Y-157D02*
D03*
X1198Y-436D02*
D03*
X1131Y-474D02*
D03*
X638Y-412D02*
D03*
X1041Y-831D02*
D03*
X853Y-432D02*
D03*
X942Y-672D02*
D03*
X1021Y-668D02*
D03*
X1048Y-787D02*
D03*
X1050Y-515D02*
D03*
X1212Y-235D02*
D03*
X320Y-894D02*
D03*
X1608Y-582D02*
D03*
X1343Y-1818D02*
D03*
X1616Y-787D02*
D03*
X1398Y-1943D02*
D03*
X1624Y-829D02*
D03*
X1410Y-1763D02*
D03*
X1634Y-923D02*
D03*
X1553Y-1832D02*
D03*
X1588Y-1637D02*
D03*
X1661Y-967D02*
D03*
X240Y-909D02*
D03*
X190Y-970D02*
D03*
X256Y-2045D02*
D03*
X182Y-2010D02*
D03*
X1008Y-2035D02*
D03*
X1163Y-1667D02*
D03*
X1109Y-1667D02*
D03*
X310Y-2170D02*
D03*
X259Y-2137D02*
D03*
X144Y-1965D02*
D03*
D63*
X522Y-1174D02*
D03*
X524Y-1278D02*
D03*
X513Y-1384D02*
D03*
X522Y-1500D02*
D03*
X524Y-1585D02*
D03*
X522Y-1681D02*
D03*
Y-1782D02*
D03*
Y-1884D02*
D03*
M02*
