M48
;Layer_Color=9474304
;FILE_FORMAT=2:3
INCH,LZ
;TYPE=PLATED
T1F00S00C0.020
T2F00S00C0.028
T3F00S00C0.031
T4F00S00C0.035
T6F00S00C0.043
T7F00S00C0.118
%
T01
X0032Y-00894
X01041Y-00831
X01048Y-00787
X01616
X01624Y-00829
X01634Y-00923
X01661Y-00967
X01588Y-01637
X01553Y-01832
X0141Y-01763
X01343Y-01818
X01398Y-01943
X01008Y-02035
X01109Y-01667
X01163Y-01667
X0031Y-0217
X00259Y-02137
X00256Y-02045
X00182Y-0201
X00144Y-01965
X0019Y-0097
X0024Y-00909
X00638Y-00412
X00853Y-00432
X0105Y-00515
X01131Y-00474
X01198Y-00436
X01212Y-00235
X00733Y-00158
X00641Y-00157
X00942Y-00672
X01021Y-00668
X01608Y-00582
T02
X00522Y-01174
X00524Y-01278
X00513Y-01384
X00522Y-015
X00524Y-01585
X00522Y-01681
Y-01782
Y-01884
T03
X00484Y-00946
X00635Y-01051
X00736Y-01061
X00838Y-00946
X00978Y-01052
Y-01406
X00736Y-01415
X00635Y-01405
X00294Y-00323
Y-00223
T04
X00856Y-01128
Y-01328
X00065Y-01378
Y-01478
Y-01578
Y-01678
Y-01778
Y-01878
Y-01278
Y-01178
Y-01078
Y-00978
X00183Y-00775
Y-00677
Y-00598
Y-005
X0115Y-00051
X0125
X01767Y-00079
Y-00179
Y-00279
Y-00379
Y-00479
Y-00579
T06
X00092Y-00726
Y-00549
T07
X01757Y-02199
X001Y-02198
X00118Y-00118
X0153Y-001
M30
