G04 Layer: TopSilkLayer*
G04 EasyEDA v6.4.5, 2020-09-20T16:18:12--7:00*
G04 bc100e7cdeee4e5aa78747fa08b5d3d3,abbdd1fb948b472fab9dcc4573dbb586,10*
G04 Gerber Generator version 0.2*
G04 Scale: 100 percent, Rotated: No, Reflected: No *
G04 Dimensions in millimeters *
G04 leading zeros omitted , absolute positions ,3 integer and 3 decimal *
%FSLAX33Y33*%
%MOMM*%
G90*
G71D02*

%ADD10C,0.254000*%
%ADD16C,0.150012*%
%ADD17C,0.152400*%

%LPD*%
G54D10*
G01X4096Y5547D02*
G01X4096Y5403D01*
G01X4096Y4502D02*
G01X4096Y4133D01*
G01X8095Y5547D02*
G01X8095Y5403D01*
G01X8095Y4502D02*
G01X8095Y4133D01*
G01X8095Y3232D02*
G01X8095Y2863D01*
G01X8095Y1962D02*
G01X8095Y1593D01*
G01X5516Y5547D02*
G01X4096Y5547D01*
G01X4096Y3232D02*
G01X4096Y2863D01*
G01X4096Y1962D02*
G01X4096Y1593D01*
G01X4096Y692D02*
G01X4096Y548D01*
G01X8095Y5547D02*
G01X6695Y5547D01*
G01X8096Y548D02*
G01X4096Y548D01*
G01X8096Y692D02*
G01X8096Y548D01*
G01X6819Y8610D02*
G01X8420Y8610D01*
G01X8414Y10460D02*
G01X8414Y11710D01*
G01X6814Y10460D02*
G01X6814Y11710D01*
G01X8420Y9860D02*
G01X8420Y8610D01*
G01X6819Y9860D02*
G01X6819Y8610D01*
G01X6814Y11710D02*
G01X8414Y11710D01*
G01X6055Y11905D02*
G01X5911Y11905D01*
G01X5010Y11905D02*
G01X4641Y11905D01*
G01X6055Y7906D02*
G01X5911Y7906D01*
G01X5010Y7906D02*
G01X4641Y7906D01*
G01X3740Y7906D02*
G01X3371Y7906D01*
G01X2470Y7906D02*
G01X2101Y7906D01*
G01X6055Y10485D02*
G01X6055Y11905D01*
G01X3740Y11905D02*
G01X3371Y11905D01*
G01X2470Y11905D02*
G01X2101Y11905D01*
G01X1200Y11905D02*
G01X1056Y11905D01*
G01X6055Y7906D02*
G01X6055Y9306D01*
G01X1056Y7905D02*
G01X1056Y11905D01*
G01X1200Y7905D02*
G01X1056Y7905D01*
G54D16*
G01X10339Y11902D02*
G01X11009Y11902D01*
G01X9209Y11903D02*
G01X9209Y10703D01*
G01X9979Y11902D02*
G01X9209Y11903D01*
G01X9979Y10702D02*
G01X9209Y10702D01*
G01X10339Y10702D02*
G01X11009Y10702D01*
G01X11009Y11902D02*
G01X11010Y11902D01*
G01X11249Y11662D01*
G01X11249Y10943D01*
G01X11009Y10702D01*
G01X10339Y9616D02*
G01X11009Y9616D01*
G01X9209Y9617D02*
G01X9209Y8417D01*
G01X9979Y9616D02*
G01X9209Y9617D01*
G01X9979Y8416D02*
G01X9209Y8416D01*
G01X10339Y8416D02*
G01X11009Y8416D01*
G01X11009Y9616D02*
G01X11010Y9616D01*
G01X11249Y9376D01*
G01X11249Y8657D01*
G01X11009Y8416D01*
G54D17*
G01X10601Y3429D02*
G01X9822Y3429D01*
G01X9667Y3378D01*
G01X9563Y3274D01*
G01X9512Y3116D01*
G01X9512Y3012D01*
G01X9563Y2857D01*
G01X9667Y2753D01*
G01X9822Y2702D01*
G01X10601Y2702D01*
G01X10601Y2255D02*
G01X10601Y1684D01*
G01X10185Y1993D01*
G01X10185Y1838D01*
G01X10134Y1734D01*
G01X10083Y1684D01*
G01X9926Y1630D01*
G01X9822Y1630D01*
G01X9667Y1684D01*
G01X9563Y1788D01*
G01X9512Y1943D01*
G01X9512Y2098D01*
G01X9563Y2255D01*
G01X9613Y2306D01*
G01X9718Y2359D01*
G54D10*
G75*
G01X6696Y5538D02*
G02X5516Y5538I-590J-45D01*
G01*
G75*
G01X6046Y9306D02*
G02X6046Y10486I-45J590D01*
G01*
G75*
G01X3620Y5715D02*
G03X3620Y5715I-190J0D01*
G01*
G75*
G01X6414Y12573D02*
G03X6414Y12573I-190J0D01*
G01*
M00*
M02*
