G04 Layer: TopSolderMaskLayer*
G04 EasyEDA v6.4.5, 2020-09-20T16:18:12--7:00*
G04 bc100e7cdeee4e5aa78747fa08b5d3d3,abbdd1fb948b472fab9dcc4573dbb586,10*
G04 Gerber Generator version 0.2*
G04 Scale: 100 percent, Rotated: No, Reflected: No *
G04 Dimensions in millimeters *
G04 leading zeros omitted , absolute positions ,3 integer and 3 decimal *
%FSLAX33Y33*%
%MOMM*%
G90*
G71D02*

%ADD18C,0.803199*%
%ADD19C,0.853211*%

%LPD*%
G54D18*
G01X2896Y4953D02*
G01X3816Y4953D01*
G01X8375Y2413D02*
G01X9295Y2413D01*
G01X8375Y1143D02*
G01X9295Y1143D01*
G01X8375Y3683D02*
G01X9295Y3683D01*
G01X8375Y4953D02*
G01X9295Y4953D01*
G01X2896Y1143D02*
G01X3816Y1143D01*
G01X2896Y3683D02*
G01X3816Y3683D01*
G01X2896Y2413D02*
G01X3816Y2413D01*
G01X2921Y13105D02*
G01X2921Y12185D01*
G01X1651Y7626D02*
G01X1651Y6706D01*
G01X2921Y7626D02*
G01X2921Y6706D01*
G01X4191Y7626D02*
G01X4191Y6706D01*
G01X4191Y13105D02*
G01X4191Y12185D01*
G01X5461Y13105D02*
G01X5461Y12185D01*
G01X5461Y7626D02*
G01X5461Y6706D01*
G01X1651Y13105D02*
G01X1651Y12185D01*
G54D19*
G01X889Y4445D03*
G01X889Y5842D03*
G54D18*
G01X11430Y2413D03*
G54D19*
G01X889Y3048D03*
G54D18*
G01X11430Y3683D03*
G36*
G01X6967Y10358D02*
G01X6967Y11562D01*
G01X8272Y11562D01*
G01X8272Y10358D01*
G01X6967Y10358D01*
G37*
G36*
G01X6967Y8757D02*
G01X6967Y9961D01*
G01X8272Y9961D01*
G01X8272Y8757D01*
G01X6967Y8757D01*
G37*
G36*
G01X10307Y10800D02*
G01X10307Y11803D01*
G01X11010Y11803D01*
G01X11010Y10800D01*
G01X10307Y10800D01*
G37*
G36*
G01X9309Y10800D02*
G01X9309Y11803D01*
G01X10012Y11803D01*
G01X10012Y10800D01*
G01X9309Y10800D01*
G37*
G36*
G01X10307Y8514D02*
G01X10307Y9517D01*
G01X11010Y9517D01*
G01X11010Y8514D01*
G01X10307Y8514D01*
G37*
G36*
G01X9309Y8514D02*
G01X9309Y9517D01*
G01X10012Y9517D01*
G01X10012Y8514D01*
G01X9309Y8514D01*
G37*
M00*
M02*
