G04 Layer: TopLayer*
G04 EasyEDA v6.4.5, 2020-09-20T16:18:12--7:00*
G04 bc100e7cdeee4e5aa78747fa08b5d3d3,abbdd1fb948b472fab9dcc4573dbb586,10*
G04 Gerber Generator version 0.2*
G04 Scale: 100 percent, Rotated: No, Reflected: No *
G04 Dimensions in millimeters *
G04 leading zeros omitted , absolute positions ,3 integer and 3 decimal *
%FSLAX33Y33*%
%MOMM*%
G90*
G71D02*

%ADD10C,0.254000*%
%ADD11C,0.599999*%
%ADD12C,0.609600*%
%ADD13R,1.099998X0.999998*%
%ADD15C,0.650011*%

%LPD*%
G54D10*
G01X10659Y11303D02*
G01X11549Y11303D01*
G01X8790Y11303D02*
G01X8790Y11910D01*
G01X8509Y12192D01*
G01X6731Y12192D01*
G01X5715Y11176D01*
G01X4191Y11176D01*
G01X4191Y12646D01*
G01X7620Y10960D02*
G01X7962Y11303D01*
G01X9659Y11303D01*
G01X11430Y3683D02*
G01X8835Y3683D01*
G01X3356Y1143D02*
G01X2794Y1143D01*
G01X889Y3048D01*
G01X12065Y9017D02*
G01X10659Y9017D01*
G01X3356Y3683D02*
G01X5842Y3683D01*
G01X8509Y6350D01*
G01X10922Y6350D01*
G01X12700Y8128D01*
G01X12700Y9652D01*
G01X11557Y10795D01*
G01X11549Y11303D01*
G01X11430Y2413D02*
G01X8835Y2413D01*
G01X889Y5842D02*
G01X1651Y6604D01*
G01X1651Y7166D01*
G01X2921Y12645D02*
G01X2921Y11938D01*
G01X889Y9906D01*
G01X889Y5842D01*
G01X889Y4445D02*
G01X2159Y4445D01*
G01X2667Y4953D01*
G01X3356Y4953D01*
G01X5461Y12646D02*
G01X5461Y13081D01*
G01X10541Y13081D01*
G01X11557Y12065D01*
G01X11557Y11303D01*
G01X2921Y7218D02*
G01X2921Y7927D01*
G01X4445Y9451D01*
G01X5407Y9451D01*
G01X6731Y8128D01*
G01X8509Y8128D01*
G01X8864Y8483D01*
G01X8864Y9070D01*
G01X7620Y9413D02*
G01X7962Y9070D01*
G01X9659Y9070D01*
G01X4191Y7165D02*
G01X4191Y8001D01*
G01X4699Y8509D01*
G01X5715Y8509D01*
G01X7239Y6985D01*
G01X10287Y6985D01*
G01X11557Y8255D01*
G01X11557Y9017D01*
G01X11803Y9017D01*
G54D11*
G01X2896Y4953D02*
G01X3816Y4953D01*
G01X8375Y2413D02*
G01X9295Y2413D01*
G01X8375Y1143D02*
G01X9295Y1143D01*
G01X8375Y3683D02*
G01X9295Y3683D01*
G01X8375Y4953D02*
G01X9295Y4953D01*
G01X2896Y1143D02*
G01X3816Y1143D01*
G01X2896Y3683D02*
G01X3816Y3683D01*
G01X2921Y13105D02*
G01X2921Y12185D01*
G01X1651Y7626D02*
G01X1651Y6706D01*
G01X2921Y7626D02*
G01X2921Y6706D01*
G01X4191Y7626D02*
G01X4191Y6706D01*
G01X4191Y13105D02*
G01X4191Y12185D01*
G01X5461Y13105D02*
G01X5461Y12185D01*
G54D13*
G01X7620Y10960D03*
G01X7620Y9360D03*
G36*
G01X10409Y11702D02*
G01X10909Y11702D01*
G01X10909Y10902D01*
G01X10409Y10902D01*
G01X10409Y11702D01*
G37*
G36*
G01X9409Y11702D02*
G01X9909Y11702D01*
G01X9909Y10902D01*
G01X9409Y10902D01*
G01X9409Y11702D01*
G37*
G36*
G01X10409Y9416D02*
G01X10909Y9416D01*
G01X10909Y8616D01*
G01X10409Y8616D01*
G01X10409Y9416D01*
G37*
G36*
G01X9409Y9416D02*
G01X9909Y9416D01*
G01X9909Y8616D01*
G01X9409Y8616D01*
G01X9409Y9416D01*
G37*
G54D15*
G01X889Y4445D03*
G01X889Y5842D03*
G54D11*
G01X11430Y2413D03*
G54D15*
G01X889Y3048D03*
G54D11*
G01X11430Y3683D03*
G54D12*
G01X12065Y9017D03*
G54D11*
G01X2896Y2413D02*
G01X3816Y2413D01*
G01X5461Y7626D02*
G01X5461Y6706D01*
G01X1651Y13105D02*
G01X1651Y12185D01*
M00*
M02*
